<?xml version="1.0" standalone="no"?>
<!DOCTYPE svg PUBLIC "-//W3C//DTD SVG 20010904//EN"
 "http://www.w3.org/TR/2001/REC-SVG-20010904/DTD/svg10.dtd">
<svg version="1.0" xmlns="http://www.w3.org/2000/svg"
 width="96.000000pt" height="96.000000pt" viewBox="0 0 96.000000 96.000000"
 preserveAspectRatio="xMidYMid meet">
<metadata>
Created by potrace 1.11, written by Peter Selinger 2001-2013
</metadata>
<g transform="translate(0.000000,96.000000) scale(0.100000,-0.100000)"
fill="#000000" stroke="none">
<path d="M387 870 c-89 -23 -170 -78 -226 -153 -59 -80 -79 -146 -77 -248 2
-77 6 -94 39 -161 99 -202 329 -282 534 -186 54 25 150 117 175 169 38 79 42
99 42 200 0 74 -5 94 -31 150 -67 143 -190 228 -339 235 -44 2 -96 -1 -117 -6z"/>
</g>
</svg>
